<svg width="450" height="450" viewBox="0 0 450 450" fill="none" xmlns="http://www.w3.org/2000/svg">
    <path fill-rule="evenodd" clip-rule="evenodd"
          d="M420.973 369.88C431.679 380.598 450 373.016 450 357.866V225V92.1344C450 76.9844 431.679 69.4017 420.973 80.1203L288.255 212.986C281.625 219.623 281.625 230.377 288.255 237.014L420.973 369.88ZM366.015 29.0141C376.715 18.302 369.128 0 353.987 0L277.751 0C268.362 0 260.751 7.61116 260.751 17V93.3215C260.751 108.471 279.072 116.054 289.778 105.336L366.015 29.0141ZM185.751 17C185.751 7.61116 178.14 0 168.751 0L17 0C7.61116 0 0 7.61116 0 17L0 225L6.06675e-06 291C6.92977e-06 300.389 7.61115 308 17 308H177.251C181.945 308 185.751 304.194 185.751 299.5V225V17ZM17 383C7.61117 383 6.7627e-06 390.611 5.69358e-06 400L1.93582e-06 433C8.66695e-07 442.389 7.61116 450 17 450H225H353.987C369.128 450 376.715 431.698 366.015 420.986L282.471 337.349C272.76 327.627 255.042 332.869 247.636 344.443C232.8 367.63 206.82 383 177.251 383H17Z"
          fill="white"/>
</svg>
