<svg width="451" height="451" viewBox="0 0 451 451" fill="none" xmlns="http://www.w3.org/2000/svg">
<path fill-rule="evenodd" clip-rule="evenodd" d="M421.836 370.743C432.543 381.462 450.863 373.879 450.863 358.729V225.863V92.9977C450.863 77.8478 432.543 70.265 421.836 80.9836L289.118 213.849C282.488 220.487 282.488 231.24 289.118 237.877L421.836 370.743ZM366.878 29.8774C377.578 19.1653 369.991 0.863312 354.851 0.863312L278.614 0.863312C269.225 0.863312 261.614 8.47447 261.614 17.8633V94.1848C261.614 109.335 279.935 116.918 290.642 106.199L366.878 29.8774ZM186.614 17.8633C186.614 8.47447 179.003 0.863312 169.614 0.863312L17.8634 0.863312C8.47453 0.863312 0.863373 8.47447 0.863373 17.8633L0.863373 225.863L0.863379 291.863C0.86338 301.252 8.47452 308.863 17.8634 308.863H178.114C182.809 308.863 186.614 305.058 186.614 300.363V225.863V17.8633ZM17.8634 383.863C8.47454 383.863 0.86338 391.475 0.863378 400.863L0.863375 433.863C0.863374 443.252 8.47453 450.863 17.8634 450.863H225.863H354.851C369.991 450.863 377.578 432.561 366.878 421.849L283.334 338.212C273.624 328.491 255.905 333.733 248.5 345.306C233.663 368.493 207.684 383.863 178.114 383.863H17.8634Z" fill="white"/>
</svg>
